<svg id="Layer_1" data-name="Layer 1" xmlns="http://www.w3.org/2000/svg" viewBox="0 0 205.02 44.59"><defs><style>.cls-1{fill:#5e5e5f;}.cls-2{fill:none;}.cls-3{fill:#5d8ac7;}</style></defs><title>companion-logo</title><path class="cls-1" d="M139,28h-1.56a.36.36,0,0,0-.31.18L131.3,38.37l-5.78-10.15a.36.36,0,0,0-.31-.18h-1.59a.36.36,0,0,0-.36.36V44a.36.36,0,0,0,.36.36h1.54a.36.36,0,0,0,.36-.36V32.52l5,8.77a.36.36,0,0,0,.31.18h.9a.36.36,0,0,0,.31-.18l5-8.77V44a.36.36,0,0,0,.36.36H139a.36.36,0,0,0,.36-.36V28.39A.36.36,0,0,0,139,28Z"/><path class="cls-1" d="M151.67,33.87a5.82,5.82,0,0,0-1.91-1.37,6.18,6.18,0,0,0-4.88,0,6.06,6.06,0,0,0-1.93,1.36,6.3,6.3,0,0,0-1.26,2,6.45,6.45,0,0,0-.45,2.41,6.58,6.58,0,0,0,.45,2.44,6.41,6.41,0,0,0,1.27,2,6.06,6.06,0,0,0,1.93,1.38,5.91,5.91,0,0,0,2.45.5,6.52,6.52,0,0,0,1.7-.22,5.75,5.75,0,0,0,1.5-.63,5.53,5.53,0,0,0,1.2-1,4.15,4.15,0,0,0,.82-1.26.36.36,0,0,0-.24-.48l-1.3-.35a.35.35,0,0,0-.42.2,2.51,2.51,0,0,1-.5.74,3.53,3.53,0,0,1-.76.59,4.11,4.11,0,0,1-.93.38,3.66,3.66,0,0,1-2.44-.15,3.81,3.81,0,0,1-1.2-.82,4.24,4.24,0,0,1-.86-1.25,4.45,4.45,0,0,1-.36-1.2H153a.36.36,0,0,0,.35-.28,1.55,1.55,0,0,0,0-.32v-.35a6.38,6.38,0,0,0-1.68-4.36Zm-8.14,3.45a4.53,4.53,0,0,1,.34-1.17,3.84,3.84,0,0,1,.82-1.21,3.77,3.77,0,0,1,1.2-.78,3.86,3.86,0,0,1,2.88,0,3.74,3.74,0,0,1,1.19.78,4.21,4.21,0,0,1,.85,1.21,4.06,4.06,0,0,1,.35,1.17Z"/><path class="cls-1" d="M167.17,42.34c-.11,0-.17,0-.17-.26V27.95a.36.36,0,0,0-.36-.36h-1.5a.36.36,0,0,0-.36.36v5.91a6.46,6.46,0,0,0-1.2-1,4.87,4.87,0,0,0-2.78-.82,5.06,5.06,0,0,0-2.26.51,5.49,5.49,0,0,0-1.76,1.38,6.55,6.55,0,0,0-1.15,2,7,7,0,0,0-.42,2.42,6.6,6.6,0,0,0,.43,2.36,6.29,6.29,0,0,0,1.2,2,6,6,0,0,0,1.85,1.39,5.33,5.33,0,0,0,2.36.53,5.24,5.24,0,0,0,2.6-.71,5.49,5.49,0,0,0,1.32-1v.06a1.39,1.39,0,0,0,.52,1.09,1.73,1.73,0,0,0,1.16.43,3.24,3.24,0,0,0,.6-.07.36.36,0,0,0,.29-.35V42.69A.36.36,0,0,0,167.17,42.34ZM164.8,40a2,2,0,0,1-.41,1,3.67,3.67,0,0,1-.85.82,4.48,4.48,0,0,1-1.09.56,3.2,3.2,0,0,1-2.59-.14,4,4,0,0,1-1.24-.92,4.44,4.44,0,0,1-1.14-3,4.92,4.92,0,0,1,.27-1.6,4.24,4.24,0,0,1,.76-1.37,3.87,3.87,0,0,1,1.18-1,3.13,3.13,0,0,1,1.51-.35,3.25,3.25,0,0,1,1.09.2,4.24,4.24,0,0,1,1.07.57,4.75,4.75,0,0,1,.89.85,3.61,3.61,0,0,1,.56,1Z"/><circle class="cls-1" cx="170.81" cy="30.22" r="1.4"/><rect class="cls-1" x="169.81" y="32.29" width="2.02" height="11.99" rx="0.26" ry="0.26"/><path class="cls-1" d="M185.06,41.05l-1.47-.44a.35.35,0,0,0-.44.23,1.71,1.71,0,0,1-.38.62A3.24,3.24,0,0,1,182,42a4,4,0,0,1-.92.39,3.46,3.46,0,0,1-2.46-.19,4,4,0,0,1-1.22-.91,4.31,4.31,0,0,1-.83-1.37,5,5,0,0,1,0-3.4,4.06,4.06,0,0,1,.81-1.33,3.83,3.83,0,0,1,1.21-.87,3.64,3.64,0,0,1,3.24.13,3.09,3.09,0,0,1,1.21,1.24.36.36,0,0,0,.42.17l1.46-.46a.35.35,0,0,0,.22-.2.36.36,0,0,0,0-.3,5.12,5.12,0,0,0-2-2.14,5.73,5.73,0,0,0-3-.79,6.15,6.15,0,0,0-2.48.49,5.87,5.87,0,0,0-1.93,1.35,6.11,6.11,0,0,0-1.25,2,6.66,6.66,0,0,0-.44,2.42,6.55,6.55,0,0,0,.45,2.44,6.4,6.4,0,0,0,1.27,2,5.91,5.91,0,0,0,4.4,1.89,6.28,6.28,0,0,0,1.66-.22,5.54,5.54,0,0,0,1.48-.63,5.19,5.19,0,0,0,1.17-1,4.13,4.13,0,0,0,.77-1.24.35.35,0,0,0,0-.28A.36.36,0,0,0,185.06,41.05Z"/><path class="cls-1" d="M197.47,42.34c-.12,0-.19,0-.19-.26V36.9a4.83,4.83,0,0,0-1.34-3.6A5,5,0,0,0,192.3,32a8.13,8.13,0,0,0-4.51,1.56.36.36,0,0,0-.12.46l.53,1a.36.36,0,0,0,.23.18.35.35,0,0,0,.29-.05,8.25,8.25,0,0,1,1.79-1,4.69,4.69,0,0,1,1.68-.33,2.78,2.78,0,0,1,2.12.78,3,3,0,0,1,.76,2.16v.53a9.76,9.76,0,0,0-5.07-.18,5.25,5.25,0,0,0-1.63.77,3.75,3.75,0,0,0-1.1,1.22,3.23,3.23,0,0,0-.39,1.56,3.77,3.77,0,0,0,1.2,2.79,4.17,4.17,0,0,0,1.32.83,4.48,4.48,0,0,0,1.64.3,6.49,6.49,0,0,0,2.73-.58,5.57,5.57,0,0,0,1.53-1v0a1.42,1.42,0,0,0,.46,1,1.62,1.62,0,0,0,1.13.38,3.9,3.9,0,0,0,.63-.07.36.36,0,0,0,.3-.35V42.69A.36.36,0,0,0,197.47,42.34ZM195.07,39v1.62a.8.8,0,0,1-.07.29,1.28,1.28,0,0,1-.26.36,3.2,3.2,0,0,1-1.34,1,4.86,4.86,0,0,1-2,.41,2.6,2.6,0,0,1-.95-.17,2.36,2.36,0,0,1-.76-.47,2.22,2.22,0,0,1-.49-.69,2.1,2.1,0,0,1-.18-.85,1.66,1.66,0,0,1,.84-1.44,4.22,4.22,0,0,1,2.38-.6,8.38,8.38,0,0,1,1.57.15A9,9,0,0,1,195.07,39Z"/><path class="cls-1" d="M205,43.67l-.26-1.21a.35.35,0,0,0-.48-.26,3.65,3.65,0,0,1-.56.16,2.73,2.73,0,0,1-.5.06,1,1,0,0,1-.73-.25,1,1,0,0,1-.25-.75V27.95a.36.36,0,0,0-.36-.36h-1.5a.36.36,0,0,0-.36.36v14a2.53,2.53,0,0,0,.7,1.89,2.57,2.57,0,0,0,1.88.69,6.27,6.27,0,0,0,1.11-.12,5.34,5.34,0,0,0,1.1-.31A.36.36,0,0,0,205,43.67Z"/><path class="cls-2" d="M184.2,16.46a6.56,6.56,0,0,0,0-4.63A6.09,6.09,0,0,0,183,9.95a5.53,5.53,0,0,0-1.7-1.26,4.69,4.69,0,0,0-2-.46,4.58,4.58,0,0,0-2,.46A5.46,5.46,0,0,0,175.6,10a6.26,6.26,0,0,0-1.16,1.91,6.49,6.49,0,0,0-.42,2.34,6.22,6.22,0,0,0,.42,2.3,6.29,6.29,0,0,0,1.14,1.87,5.16,5.16,0,0,0,1.68,1.25,4.86,4.86,0,0,0,4.09,0,5.52,5.52,0,0,0,1.7-1.26A6.14,6.14,0,0,0,184.2,16.46Z"/><path class="cls-3" d="M186.79,10.94a8.48,8.48,0,0,0-1.68-2.68,8.14,8.14,0,0,0-2.56-1.84,7.68,7.68,0,0,0-3.24-.69,7.56,7.56,0,0,0-3.23.69,8.23,8.23,0,0,0-2.54,1.84,8.47,8.47,0,0,0-1.68,2.68,8.7,8.7,0,0,0-.61,3.24,8.88,8.88,0,0,0,.59,3.2,8.29,8.29,0,0,0,1.67,2.68,8,8,0,0,0,2.54,1.83,7.77,7.77,0,0,0,3.26.67,7.83,7.83,0,0,0,5.83-2.5,8.26,8.26,0,0,0,1.67-2.68,8.81,8.81,0,0,0,.59-3.2A8.68,8.68,0,0,0,186.79,10.94Zm-9.53,8.68a5.16,5.16,0,0,1-1.68-1.25,6.29,6.29,0,0,1-1.14-1.87,6.22,6.22,0,0,1-.42-2.3,6.49,6.49,0,0,1,.42-2.34A6.26,6.26,0,0,1,175.6,10a5.46,5.46,0,0,1,1.68-1.28,4.58,4.58,0,0,1,2-.46,4.69,4.69,0,0,1,2,.46A5.53,5.53,0,0,1,183,9.95a6.09,6.09,0,0,1,1.16,1.89,6.56,6.56,0,0,1,0,4.63A6.14,6.14,0,0,1,183,18.34a5.52,5.52,0,0,1-1.7,1.26A4.86,4.86,0,0,1,177.26,19.62Z"/><path class="cls-2" d="M83.17,16.46a6.53,6.53,0,0,0,0-4.63A6,6,0,0,0,82,9.95a5.48,5.48,0,0,0-1.7-1.26,4.67,4.67,0,0,0-2-.46,4.58,4.58,0,0,0-2,.46A5.49,5.49,0,0,0,74.56,10a6.21,6.21,0,0,0-1.16,1.91A6.38,6.38,0,0,0,73,14.21a6.17,6.17,0,0,0,.42,2.3,6.28,6.28,0,0,0,1.15,1.87,5.09,5.09,0,0,0,1.68,1.24,4.86,4.86,0,0,0,4.09,0A5.5,5.5,0,0,0,82,18.34,6.08,6.08,0,0,0,83.17,16.46Z"/><path class="cls-3" d="M85.75,10.94a8.46,8.46,0,0,0-1.68-2.68,8.13,8.13,0,0,0-2.56-1.84,7.66,7.66,0,0,0-3.24-.69A7.57,7.57,0,0,0,75,6.42,8.2,8.2,0,0,0,72.5,8.26a8.46,8.46,0,0,0-1.68,2.68,8.72,8.72,0,0,0-.61,3.24,8.82,8.82,0,0,0,.59,3.2,8.32,8.32,0,0,0,1.67,2.68A8,8,0,0,0,75,21.89a7.77,7.77,0,0,0,3.25.67,7.83,7.83,0,0,0,5.83-2.5,8.29,8.29,0,0,0,1.67-2.68,8.84,8.84,0,0,0,.59-3.2A8.69,8.69,0,0,0,85.75,10.94Zm-9.53,8.68a5.09,5.09,0,0,1-1.68-1.24,6.28,6.28,0,0,1-1.15-1.87,6.17,6.17,0,0,1-.42-2.3,6.38,6.38,0,0,1,.43-2.34A6.21,6.21,0,0,1,74.56,10a5.49,5.49,0,0,1,1.69-1.28,4.58,4.58,0,0,1,2-.46,4.67,4.67,0,0,1,2,.46A5.48,5.48,0,0,1,82,9.95a6,6,0,0,1,1.16,1.89,6.53,6.53,0,0,1,0,4.63A6.08,6.08,0,0,1,82,18.34a5.5,5.5,0,0,1-1.7,1.26A4.86,4.86,0,0,1,76.22,19.62Z"/><path class="cls-3" d="M109.88,7.55a6.33,6.33,0,0,0-4.53-1.81H105a6.35,6.35,0,0,0-4.55,1.81,6,6,0,0,0-.51.58,6.52,6.52,0,0,0-.51-.58,6.34,6.34,0,0,0-4.53-1.81h-.33A6.35,6.35,0,0,0,90,7.55a6.42,6.42,0,0,0-1.87,4.58v9.79a.68.68,0,0,0,.16.44,1.5,1.5,0,0,0,1.2.37,1.43,1.43,0,0,0,1.21-.4.69.69,0,0,0,.14-.41V12.25A3.58,3.58,0,0,1,92,9.56a3.73,3.73,0,0,1,2.6-1.11h.25a3.73,3.73,0,0,1,2.6,1.11,3.59,3.59,0,0,1,1.14,2.67v9.69a.66.66,0,0,0,.1.35l.06.1a.6.6,0,0,0,.12.1l.08.06.16.07.12,0,.18,0,.16,0h.76l.24,0,.1,0,.1,0,.07,0,.11-.05.08-.07.09-.08.07-.09a.68.68,0,0,0,.12-.38V12.24a3.59,3.59,0,0,1,1.14-2.68,3.73,3.73,0,0,1,2.6-1.11h.25a3.72,3.72,0,0,1,2.6,1.11A3.59,3.59,0,0,1,109,12.25v9.67a.7.7,0,0,0,.14.41,1.43,1.43,0,0,0,1.21.4,1.49,1.49,0,0,0,1.2-.37.68.68,0,0,0,.16-.44v-9.8A6.4,6.4,0,0,0,109.88,7.55Z"/><path class="cls-3" d="M162.82,7.55a6.33,6.33,0,0,0-4.53-1.81h-.33a6.29,6.29,0,0,0-6.41,6.39v9.79a.68.68,0,0,0,.16.44,1.5,1.5,0,0,0,1.2.37,1.43,1.43,0,0,0,1.21-.39.67.67,0,0,0,.14-.42V12.25a3.58,3.58,0,0,1,1.14-2.69A3.71,3.71,0,0,1,158,8.45h.25a3.72,3.72,0,0,1,2.6,1.11A3.58,3.58,0,0,1,162,12.25v9.67a.7.7,0,0,0,.14.41,1.44,1.44,0,0,0,1.21.4,1.49,1.49,0,0,0,1.2-.37.68.68,0,0,0,.16-.44v-9.8A6.4,6.4,0,0,0,162.82,7.55Z"/><path class="cls-3" d="M200.66,7.55a6.33,6.33,0,0,0-4.53-1.81h-.33a6.29,6.29,0,0,0-6.42,6.39v9.79a.67.67,0,0,0,.16.44,1.5,1.5,0,0,0,1.2.37,1.43,1.43,0,0,0,1.21-.39.68.68,0,0,0,.14-.42V12.25a3.59,3.59,0,0,1,1.14-2.69,3.71,3.71,0,0,1,2.59-1.11h.25a3.73,3.73,0,0,1,2.6,1.11,3.58,3.58,0,0,1,1.14,2.69v9.67a.7.7,0,0,0,.14.41,1.43,1.43,0,0,0,1.21.4,1.49,1.49,0,0,0,1.2-.37.68.68,0,0,0,.17-.44v-9.8A6.4,6.4,0,0,0,200.66,7.55Z"/><circle class="cls-3" cx="168.01" cy="1.84" r="1.84"/><path class="cls-3" d="M168,5.73a1.45,1.45,0,0,0-1.21.4.7.7,0,0,0-.14.42V21.92a.68.68,0,0,0,.16.44,1.51,1.51,0,0,0,1.2.37,1.44,1.44,0,0,0,1.21-.4.71.71,0,0,0,.14-.41V6.55a.69.69,0,0,0-.17-.45A1.5,1.5,0,0,0,168,5.73Z"/><path class="cls-3" d="M128.17,8.25a8.6,8.6,0,0,0-11-.93l-.09.06a8.32,8.32,0,0,0-3.33,6.38c0,13.08,0,13.49,0,13.49h0v.59a.75.75,0,0,0,.16.46,1.46,1.46,0,0,0,1.21.42,1.29,1.29,0,0,0,1.17-.44.76.76,0,0,0,.13-.43l0-14.72A5.61,5.61,0,0,1,118,10.22a5.53,5.53,0,0,1,4.1-1.7,5.8,5.8,0,0,1,5.8,5.8,5.8,5.8,0,0,1-5.8,5.8,5.68,5.68,0,0,1-2.58-.6l-.11,0h-.06a.36.36,0,0,0-.36.36v2.25a.36.36,0,0,0,.24.34,8.66,8.66,0,0,0,2.87.48,8.31,8.31,0,0,0,6.08-2.52,8.33,8.33,0,0,0,2.51-6.07A8.32,8.32,0,0,0,128.17,8.25Z"/><path class="cls-2" d="M146.67,13.06a6,6,0,0,0-10.14-3,5.74,5.74,0,0,0-1.76,4.25,6,6,0,0,0,11.91,1.21Z"/><path class="cls-3" d="M149.22,6.1a1.51,1.51,0,0,0-1.2-.36,1.45,1.45,0,0,0-1.21.4.7.7,0,0,0-.14.42V8a8.61,8.61,0,0,0-12,.19,8.34,8.34,0,0,0-2.52,6.09,8.32,8.32,0,0,0,2.52,6.08,8.6,8.6,0,0,0,12,.19v1.33a.68.68,0,0,0,.16.44,1.5,1.5,0,0,0,1.2.37,1.44,1.44,0,0,0,1.22-.4.7.7,0,0,0,.13-.41V6.55A.69.69,0,0,0,149.22,6.1Zm-8.44,14.22a6,6,0,0,1-6-6,5.74,5.74,0,0,1,1.76-4.25,6,6,0,0,1,10.14,3v2.48a6.05,6.05,0,0,1-5.9,4.78Z"/><path class="cls-3" d="M69.09,17c-.07-.32-.34-.61-.87-.9A1.45,1.45,0,0,0,67,15.86a.69.69,0,0,0-.33.3l-.16.29A6,6,0,0,1,65.35,18a7.27,7.27,0,0,1-1.55,1.16,6.71,6.71,0,0,1-1.72.68,6.82,6.82,0,0,1-4.72-.48A7.67,7.67,0,0,1,55,17.51a9.24,9.24,0,0,1-1.61-2.74,9.12,9.12,0,0,1-.59-3.24,10,10,0,0,1,.49-3.06,8.52,8.52,0,0,1,1.44-2.7,7.4,7.4,0,0,1,2.34-1.93,6.75,6.75,0,0,1,3.19-.73,8,8,0,0,1,1.68.18,6.34,6.34,0,0,1,1.63.61A6.56,6.56,0,0,1,65,5a5.4,5.4,0,0,1,.51.61,6.37,6.37,0,0,1,.65,1,.39.39,0,0,0,.18.18l.06,0a1.44,1.44,0,0,0,1.25-.27c.52-.3.8-.6.85-.91a.56.56,0,0,0,0-.15.68.68,0,0,0-.09-.33l-.79-1.37-.17-.18A8.48,8.48,0,0,0,65.43,1.8,9.26,9.26,0,0,0,60.37.45a9.86,9.86,0,0,0-4.44,1A10.47,10.47,0,0,0,52.64,4a11,11,0,0,0-2,3.51,11.58,11.58,0,0,0,.06,8.06,12,12,0,0,0,2.11,3.61A10.87,10.87,0,0,0,56,21.74a8.9,8.9,0,0,0,4.18,1,10.41,10.41,0,0,0,2.59-.34,10.74,10.74,0,0,0,2.5-1,9.85,9.85,0,0,0,2.14-1.6A6.87,6.87,0,0,0,69,17.57l0-.11A.68.68,0,0,0,69.09,17Z"/><path class="cls-3" d="M29.62,8.47a15.49,15.49,0,0,1,13.5,7.34c.48.64.58.64.67.64l.09,0c.15-.07.19-.2.12-.38L44,16A22.46,22.46,0,0,0,22.49,0c-.69,0-1.4,0-2.1.1a22.48,22.48,0,0,0-20.33,24c0,.3.07.6.12.9l.08.18a1.15,1.15,0,0,0,.87.52,1.13,1.13,0,0,0,1-.77,6,6,0,0,0,.29-.91,9.1,9.1,0,0,0,.16-1.27c0-.06.14-1.07.2-1.55l0-.19c.13-.73.21-1.16.54-2.51A19,19,0,0,1,4.18,16,20,20,0,0,1,6.94,11.1L7.05,11l.16-.19,0-.05a4.06,4.06,0,0,1,.47-.55c.29-.28.47-.31.53-.31h.07a.53.53,0,0,1,.13.47,1.9,1.9,0,0,1-.38.81L8,11.26l-.18.28a16.33,16.33,0,0,0-1,1.75l-.26.49A13.87,13.87,0,0,0,5.26,17c-.11.37-.25.91-.34,1.29l-.05.23c-.08.36-.15.75-.21,1.07l-.06.35c-.06.31-.11.61-.15.95s-.08,1-.08,1a3,3,0,0,0,.49,2,1.36,1.36,0,0,0,.76.46,1.91,1.91,0,0,0,1.54-.69,3.08,3.08,0,0,0,.55-1.38c0-.2.06-.39.08-.59a17.34,17.34,0,0,1,.78-3.45c.08-.25.22-.64.37-1C9.51,16,10,15,10.52,14.24L11,13.5c.31-.48.67-1,1.08-1.62s.76-.72,1-.72a.51.51,0,0,1,.24.06.77.77,0,0,1,.28.72,2,2,0,0,1,0,.25,3.76,3.76,0,0,1-.43,1.07c-.06.11-.13.23-.22.37A13.38,13.38,0,0,0,12,15.42c-.13.33-.24.56-.35.79a12.25,12.25,0,0,0-.59,1.43c-.17.48-.2.59-.23.68l0,.09a9.77,9.77,0,0,0-.32,1.22l0,.2a4.85,4.85,0,0,0,0,1.93,1.67,1.67,0,0,0,1,1.27A1.69,1.69,0,0,0,13,22.46a3.24,3.24,0,0,0,.8-1.36c.08-.2.26-.73.46-1.25a16.29,16.29,0,0,1,.81-1.75A15.42,15.42,0,0,1,29.62,8.47Z"/><path class="cls-1" d="M15.15,36.12a15.49,15.49,0,0,1-13.5-7.34c-.48-.64-.58-.64-.67-.64l-.09,0a.26.26,0,0,0-.12.38l0,.06a22.74,22.74,0,0,0,5.36,9.14,22.58,22.58,0,0,0,16.12,6.85c.69,0,1.4,0,2.09-.09a22.48,22.48,0,0,0,20.34-24c0-.3-.07-.6-.12-.9l-.08-.18a1,1,0,0,0-1.87.24,5.93,5.93,0,0,0-.29.91,8.84,8.84,0,0,0-.16,1.27c0,.06-.14,1.07-.2,1.55l0,.19c-.13.72-.21,1.16-.54,2.51a18.9,18.9,0,0,1-.82,2.52,20.08,20.08,0,0,1-2.76,4.94l-.11.14-.16.19,0,.05a4.26,4.26,0,0,1-.47.55c-.29.28-.47.31-.53.31h-.07a.53.53,0,0,1-.13-.47,1.92,1.92,0,0,1,.38-.8l.09-.14L37,33a16,16,0,0,0,1-1.75l.26-.49a13.91,13.91,0,0,0,1.25-3.19c.11-.37.25-.91.34-1.29l0-.23c.08-.36.15-.75.21-1.07l.06-.35c.06-.31.11-.61.15-.95s.08-1,.08-1a3,3,0,0,0-.49-2,1.35,1.35,0,0,0-.76-.46A1.91,1.91,0,0,0,37.6,21a3.07,3.07,0,0,0-.55,1.38c0,.2-.06.39-.08.59a17.4,17.4,0,0,1-.78,3.45c-.08.25-.22.64-.37,1-.55,1.16-1.09,2.11-1.57,2.92l-.48.74c-.31.48-.67,1-1.08,1.61s-.77.72-1,.72a.53.53,0,0,1-.24-.06.77.77,0,0,1-.28-.72,2.2,2.2,0,0,1,0-.25,3.75,3.75,0,0,1,.43-1.07c.06-.11.13-.23.22-.37a13.32,13.32,0,0,0,.94-1.78c.13-.33.24-.56.35-.79A12.6,12.6,0,0,0,33.68,27c.17-.48.2-.59.23-.67l0-.09A9.27,9.27,0,0,0,34.25,25l0-.21a4.88,4.88,0,0,0,0-1.92,1.67,1.67,0,0,0-1-1.27,1.69,1.69,0,0,0-1.51.56A3.26,3.26,0,0,0,31,23.5c-.08.2-.26.73-.46,1.26a16.19,16.19,0,0,1-.8,1.75A15.42,15.42,0,0,1,15.15,36.12Z"/></svg>